<svg xmlns="http://www.w3.org/2000/svg" version="1.1" xmlns:xlink="http://www.w3.org/1999/xlink" width="1000" height="1000"><style>
    #light-icon {
      display: inline;
    }
    #dark-icon {
      display: none;
    }

    @media (prefers-color-scheme: dark) {
      #light-icon {
        display: none;
      }
      #dark-icon {
        display: inline;
      }
    }
  </style><g id="light-icon"><svg xmlns="http://www.w3.org/2000/svg" version="1.1" xmlns:xlink="http://www.w3.org/1999/xlink" width="1000" height="1000"><g clip-path="url(#SvgjsClipPath1132)"><rect width="1000" height="1000" fill="#000000"></rect><g transform="matrix(1.7578125,0,0,1.7578125,50,50)"><svg xmlns="http://www.w3.org/2000/svg" version="1.1" xmlns:xlink="http://www.w3.org/1999/xlink" width="512" height="512"><svg xmlns="http://www.w3.org/2000/svg" xmlns:xlink="http://www.w3.org/1999/xlink" width="512" zoomAndPan="magnify" viewBox="0 0 384 383.999986" height="512" preserveAspectRatio="xMidYMid meet" version="1.0"><defs><clipPath id="b7f57b573c"><path d="M 208 71.199219 L 330 71.199219 L 330 252 L 208 252 Z M 208 71.199219 " clip-rule="nonzero"></path></clipPath><clipPath id="05e998ea97"><path d="M 29.308594 71.199219 L 354.804688 71.199219 L 354.804688 312.699219 L 29.308594 312.699219 Z M 29.308594 71.199219 " clip-rule="nonzero"></path></clipPath><clipPath id="SvgjsClipPath1132"><rect width="1000" height="1000" x="0" y="0" rx="350" ry="350"></rect></clipPath></defs><g clip-path="url(#b7f57b573c)"><path fill="#ffffff" d="M 212.875 111 L 208.644531 111 L 208.644531 71.199219 L 212.875 71.199219 L 212.875 71.265625 C 292.40625 72.632812 328.109375 130.898438 329.085938 189.882812 C 329.34375 210.757812 325.054688 232.285156 315.949219 251.011719 L 282.390625 217.71875 C 285.1875 208.15625 286.359375 198.207031 285.96875 188.519531 C 284.34375 151.773438 268.867188 113.339844 212.875 111 Z M 212.875 111 " fill-opacity="1" fill-rule="nonzero"></path></g><g clip-path="url(#05e998ea97)"><path fill="#ffffff" d="M 354.578125 312.792969 L 293.121094 312.792969 L 285.449219 305.054688 L 278.75 298.292969 L 276.019531 295.558594 C 259.175781 306.355469 238.105469 312.273438 213.328125 312.730469 C 212.289062 312.792969 211.183594 312.792969 210.078125 312.792969 C 208.777344 312.792969 207.539062 312.792969 206.238281 312.730469 C 155.644531 311.558594 122.933594 287.429688 105.636719 254.785156 C 94.644531 236.316406 88.335938 216.480469 88.273438 193.460938 L 88.273438 111 L 29.417969 111 L 29.417969 71.199219 L 191.996094 71.199219 L 191.996094 111 L 133.792969 111 L 133.792969 193.523438 C 134.445312 231.632812 159.613281 272.410156 210.011719 272.410156 C 241.8125 272.410156 263.597656 256.152344 275.433594 234.496094 L 310.679688 269.351562 L 312.957031 271.628906 Z M 354.578125 312.792969 " fill-opacity="1" fill-rule="nonzero"></path></g></svg></svg></g></g></svg></g><g id="dark-icon"><svg xmlns="http://www.w3.org/2000/svg" version="1.1" xmlns:xlink="http://www.w3.org/1999/xlink" width="1000" height="1000"><g clip-path="url(#SvgjsClipPath1133)"><rect width="1000" height="1000" fill="#000000"></rect><g transform="matrix(1.953125,0,0,1.953125,0,0)"><svg xmlns="http://www.w3.org/2000/svg" version="1.1" xmlns:xlink="http://www.w3.org/1999/xlink" width="512" height="512"><svg xmlns="http://www.w3.org/2000/svg" xmlns:xlink="http://www.w3.org/1999/xlink" width="512" zoomAndPan="magnify" viewBox="0 0 384 383.999986" height="512" preserveAspectRatio="xMidYMid meet" version="1.0"><defs><clipPath id="b7f57b573c"><path d="M 208 71.199219 L 330 71.199219 L 330 252 L 208 252 Z M 208 71.199219 " clip-rule="nonzero"></path></clipPath><clipPath id="05e998ea97"><path d="M 29.308594 71.199219 L 354.804688 71.199219 L 354.804688 312.699219 L 29.308594 312.699219 Z M 29.308594 71.199219 " clip-rule="nonzero"></path></clipPath><clipPath id="SvgjsClipPath1133"><rect width="1000" height="1000" x="0" y="0" rx="350" ry="350"></rect></clipPath></defs><g clip-path="url(#b7f57b573c)"><path fill="#ffffff" d="M 212.875 111 L 208.644531 111 L 208.644531 71.199219 L 212.875 71.199219 L 212.875 71.265625 C 292.40625 72.632812 328.109375 130.898438 329.085938 189.882812 C 329.34375 210.757812 325.054688 232.285156 315.949219 251.011719 L 282.390625 217.71875 C 285.1875 208.15625 286.359375 198.207031 285.96875 188.519531 C 284.34375 151.773438 268.867188 113.339844 212.875 111 Z M 212.875 111 " fill-opacity="1" fill-rule="nonzero"></path></g><g clip-path="url(#05e998ea97)"><path fill="#ffffff" d="M 354.578125 312.792969 L 293.121094 312.792969 L 285.449219 305.054688 L 278.75 298.292969 L 276.019531 295.558594 C 259.175781 306.355469 238.105469 312.273438 213.328125 312.730469 C 212.289062 312.792969 211.183594 312.792969 210.078125 312.792969 C 208.777344 312.792969 207.539062 312.792969 206.238281 312.730469 C 155.644531 311.558594 122.933594 287.429688 105.636719 254.785156 C 94.644531 236.316406 88.335938 216.480469 88.273438 193.460938 L 88.273438 111 L 29.417969 111 L 29.417969 71.199219 L 191.996094 71.199219 L 191.996094 111 L 133.792969 111 L 133.792969 193.523438 C 134.445312 231.632812 159.613281 272.410156 210.011719 272.410156 C 241.8125 272.410156 263.597656 256.152344 275.433594 234.496094 L 310.679688 269.351562 L 312.957031 271.628906 Z M 354.578125 312.792969 " fill-opacity="1" fill-rule="nonzero"></path></g></svg></svg></g></g></svg></g></svg>