<svg width="16" height="16" viewBox="0 0 16 16" fill="none" xmlns="http://www.w3.org/2000/svg">
  <path d="M5.5 2V1C5.5 0.734784 5.60536 0.48043 5.79289 0.292893C5.98043 0.105357 6.23478 0 6.5 0H9.5C9.76522 0 10.0196 0.105357 10.2071 0.292893C10.3946 0.48043 10.5 0.734784 10.5 1V2H14C14.1326 2 14.2598 2.05268 14.3536 2.14645C14.4473 2.24021 14.5 2.36739 14.5 2.5V3.5C14.5 3.63261 14.4473 3.75979 14.3536 3.85355C14.2598 3.94732 14.1326 4 14 4H13V13C13 13.5304 12.7893 14.0391 12.4142 14.4142C12.0391 14.7893 11.5304 15 11 15H5C4.46957 15 3.96086 14.7893 3.58579 14.4142C3.21071 14.0391 3 13.5304 3 13V4H2C1.86739 4 1.74021 3.94732 1.64645 3.85355C1.55268 3.75979 1.5 3.63261 1.5 3.5V2.5C1.5 2.36739 1.55268 2.24021 1.64645 2.14645C1.74021 2.05268 1.86739 2 2 2H5.5ZM6.5 2H9.5V1H6.5V2ZM4 4V13C4 13.2652 4.10536 13.5196 4.29289 13.7071C4.48043 13.8946 4.73478 14 5 14H11C11.2652 14 11.5196 13.8946 11.7071 13.7071C11.8946 13.5196 12 13.2652 12 13V4H4ZM6 6.5V11.5C6 11.6326 6.05268 11.7598 6.14645 11.8536C6.24021 11.9473 6.36739 12 6.5 12C6.63261 12 6.75979 11.9473 6.85355 11.8536C6.94732 11.7598 7 11.6326 7 11.5V6.5C7 6.36739 6.94732 6.24021 6.85355 6.14645C6.75979 6.05268 6.63261 6 6.5 6C6.36739 6 6.24021 6.05268 6.14645 6.14645C6.05268 6.24021 6 6.36739 6 6.5ZM9 6.5V11.5C9 11.6326 9.05268 11.7598 9.14645 11.8536C9.24021 11.9473 9.36739 12 9.5 12C9.63261 12 9.75979 11.9473 9.85355 11.8536C9.94732 11.7598 10 11.6326 10 11.5V6.5C10 6.36739 9.94732 6.24021 9.85355 6.14645C9.75979 6.05268 9.63261 6 9.5 6C9.36739 6 9.24021 6.05268 9.14645 6.14645C9.05268 6.24021 9 6.36739 9 6.5Z" fill="#ffffff"/>
</svg>

