<svg width="16" height="16" viewBox="0 0 16 16" fill="none" xmlns="http://www.w3.org/2000/svg">
  <path d="M11.333 2.00001C11.5084 1.82465 11.7163 1.68607 11.9441 1.59233C12.1719 1.49859 12.4151 1.45166 12.6607 1.45434C12.9062 1.45702 13.1491 1.50926 13.3741 1.60801C13.5992 1.70676 13.8016 1.85008 13.9693 2.02934C14.137 2.2086 14.2665 2.42011 14.3506 2.65073C14.4347 2.88135 14.4716 3.12649 14.4589 3.37111C14.4462 3.61573 14.3842 3.85501 14.2767 4.07401C14.1692 4.29301 14.0186 4.48724 13.833 4.64468L13.166 5.31134L10.666 2.81134L11.333 2.00001ZM2.66602 12.0007V13.334H3.99935L10.8727 6.46068L9.53935 5.12734L2.66602 12.0007Z" fill="#ffffff"/>
</svg>

