<svg xmlns="http://www.w3.org/2000/svg" xmlns:xlink="http://www.w3.org/1999/xlink" width="500" zoomAndPan="magnify" viewBox="0 0 375 374.999991" height="500" preserveAspectRatio="xMidYMid meet" version="1.0"><defs><clipPath id="40992d0c24"><path d="M 142 79.671875 L 258 79.671875 L 258 144 L 142 144 Z M 142 79.671875 " clip-rule="nonzero"/></clipPath><clipPath id="3faf2a2e41"><path d="M 303 248 L 315.324219 248 L 315.324219 264 L 303 264 Z M 303 248 " clip-rule="nonzero"/></clipPath><clipPath id="20abe025de"><path d="M 37.5 238 L 104 238 L 104 287 L 37.5 287 Z M 37.5 238 " clip-rule="nonzero"/></clipPath></defs><path fill="#ff3131" d="M 143.882812 200.453125 C 142.046875 194.390625 140.523438 187.328125 139.390625 179.628906 C 139.390625 179.621094 139.378906 179.609375 139.378906 179.601562 C 139.371094 179.5625 139.371094 179.515625 139.371094 179.46875 C 139.050781 177.285156 138.746094 175.0625 138.492188 172.792969 C 132.996094 175.621094 130.671875 183.34375 133.347656 190.625 C 135.277344 195.875 139.4375 199.582031 143.882812 200.453125 " fill-opacity="1" fill-rule="nonzero"/><path fill="#ff3131" d="M 202.355469 190.371094 L 197.648438 190.371094 C 187.054688 190.464844 187.59375 183.035156 187.59375 183.035156 C 187.511719 178.515625 192.039062 177.605469 192.039062 177.605469 C 192.039062 177.605469 193.949219 177.207031 195.59375 177.984375 C 196.570312 178.4375 197.582031 178.808594 198.660156 178.808594 L 201.351562 178.808594 C 202.429688 178.808594 203.441406 178.4375 204.417969 177.984375 C 206.0625 177.207031 207.972656 177.605469 207.972656 177.605469 C 207.972656 177.605469 212.5 178.515625 212.40625 183.035156 C 212.40625 183.035156 212.957031 190.464844 202.355469 190.371094 Z M 180.019531 146.277344 C 179.964844 146.261719 173.636719 145.230469 169.261719 148.3125 C 168.84375 148.605469 168.351562 148.757812 167.871094 148.757812 C 167.113281 148.757812 166.367188 148.398438 165.894531 147.726562 C 165.117188 146.636719 165.382812 145.125 166.480469 144.351562 C 172.511719 140.105469 180.523438 141.445312 180.851562 141.503906 C 182.175781 141.738281 183.046875 142.988281 182.820312 144.3125 C 182.582031 145.617188 181.34375 146.496094 180.019531 146.277344 Z M 175.804688 174.078125 C 173.128906 174.078125 170.960938 171.902344 170.960938 169.238281 C 170.960938 166.5625 173.128906 164.394531 175.804688 164.394531 C 178.480469 164.394531 180.644531 166.5625 180.644531 169.238281 C 180.644531 171.902344 178.480469 174.078125 175.804688 174.078125 Z M 219.160156 141.503906 C 219.5 141.445312 227.5 140.105469 233.542969 144.351562 C 234.636719 145.125 234.894531 146.636719 234.128906 147.726562 C 233.65625 148.398438 232.90625 148.757812 232.152344 148.757812 C 231.667969 148.757812 231.175781 148.605469 230.75 148.3125 C 226.382812 145.230469 220.058594 146.261719 220 146.277344 C 218.675781 146.503906 217.429688 145.617188 217.203125 144.300781 C 216.972656 142.988281 217.84375 141.738281 219.160156 141.503906 Z M 224.21875 174.078125 C 221.542969 174.078125 219.375 171.902344 219.375 169.238281 C 219.375 166.5625 221.542969 164.394531 224.21875 164.394531 C 226.894531 164.394531 229.058594 166.5625 229.058594 169.238281 C 229.058594 171.902344 226.894531 174.078125 224.21875 174.078125 Z M 214.035156 237.054688 C 229.238281 231.996094 241.34375 219.902344 246.34375 211.5625 C 250.457031 204.714844 253.824219 192.613281 255.886719 178.449219 C 256.453125 173.945312 253.085938 164.433594 250.808594 158.863281 L 248.507812 160.460938 C 247.78125 160.972656 246.828125 161.03125 246.03125 160.632812 C 245.226562 160.214844 244.726562 159.402344 244.707031 158.515625 C 244.546875 148.585938 237.929688 139.613281 236.253906 137.503906 C 227.574219 134.269531 216.246094 131.632812 202.363281 131.632812 L 197.628906 131.632812 C 183.59375 131.632812 172.199219 134.289062 163.511719 137.542969 C 161.886719 139.585938 155.199219 148.59375 155.039062 158.582031 C 155.019531 159.480469 154.519531 160.28125 153.722656 160.691406 C 152.929688 161.105469 151.964844 161.039062 151.238281 160.527344 L 148.976562 158.960938 C 146.785156 164.527344 143.585938 173.976562 144.136719 178.484375 C 146.207031 192.640625 149.5625 204.714844 153.667969 211.5625 C 160.136719 222.339844 178.433594 239.4375 200.011719 239.4375 C 204.878906 239.4375 209.5625 238.539062 213.996094 237.0625 C 214.015625 237.054688 214.023438 237.054688 214.035156 237.054688 " fill-opacity="1" fill-rule="nonzero"/><path fill="#ff3131" d="M 187.90625 242.660156 L 187.945312 257.988281 C 191.140625 259.652344 200.964844 263.683594 212.617188 258.199219 L 212.550781 242.546875 C 208.53125 243.644531 204.332031 244.277344 200.011719 244.277344 C 195.839844 244.277344 191.792969 243.671875 187.90625 242.660156 " fill-opacity="1" fill-rule="nonzero"/><path fill="#ff3131" d="M 295.882812 244.429688 L 290.691406 253.394531 C 291.089844 254.785156 291.175781 256.257812 290.84375 257.707031 C 290.644531 258.574219 290.292969 259.378906 289.871094 260.117188 C 290.304688 260.835938 290.910156 261.449219 291.65625 261.886719 C 292.828125 262.566406 294.199219 262.746094 295.523438 262.394531 C 296.839844 262.054688 297.933594 261.203125 298.617188 260.03125 L 304.695312 249.527344 C 305.375 248.355469 305.554688 246.984375 305.207031 245.667969 C 304.855469 244.355469 304.015625 243.257812 302.84375 242.566406 C 300.414062 241.167969 297.292969 242 295.882812 244.429688 " fill-opacity="1" fill-rule="nonzero"/><g clip-path="url(#40992d0c24)"><path fill="#ff3131" d="M 158.8125 106.953125 C 170.472656 101.894531 182.707031 99.8125 195.1875 100.785156 C 196.398438 100.882812 197.355469 101.855469 197.417969 103.066406 L 198.25 117.855469 C 198.289062 118.554688 198.023438 119.234375 197.523438 119.726562 C 197.023438 120.210938 196.332031 120.445312 195.640625 120.40625 C 183.972656 119.480469 172.503906 121.4375 161.5625 126.183594 C 161.261719 126.316406 160.929688 126.382812 160.597656 126.382812 C 160.164062 126.382812 159.71875 126.261719 159.332031 126.023438 C 158.660156 125.609375 158.234375 124.890625 158.1875 124.105469 L 157.355469 109.304688 C 157.296875 108.292969 157.875 107.359375 158.8125 106.953125 Z M 197.628906 126.789062 L 202.363281 126.789062 C 217.285156 126.789062 229.457031 129.722656 238.714844 133.257812 C 238.75 133.277344 238.78125 133.285156 238.808594 133.296875 C 247.855469 136.777344 254.125 140.824219 257.4375 143.273438 L 257.992188 143.707031 L 257.171875 133.644531 L 256.320312 129.398438 C 252.621094 110.820312 240.398438 79.671875 200.011719 79.671875 C 159.566406 79.671875 147.359375 110.894531 143.683594 129.503906 L 142.832031 133.644531 L 142.027344 143.667969 L 142.492188 143.289062 C 149.203125 138.296875 167.859375 126.789062 197.628906 126.789062 " fill-opacity="1" fill-rule="nonzero"/></g><path fill="#ff3131" d="M 145.660156 154.289062 C 145.941406 153.617188 146.519531 153.117188 147.21875 152.917969 C 147.910156 152.71875 148.664062 152.839844 149.261719 153.257812 L 150.59375 154.183594 C 151.417969 149.152344 153.394531 144.613281 155.339844 141.105469 C 150.839844 143.386719 147.511719 145.589844 145.449219 147.121094 L 141.941406 149.9375 C 141.988281 154.210938 142.160156 158.476562 142.445312 162.664062 C 143.882812 158.449219 145.328125 155.054688 145.660156 154.289062 " fill-opacity="1" fill-rule="nonzero"/><path fill="#ff3131" d="M 193.257812 115.414062 L 192.703125 105.476562 C 182.300781 104.984375 172.085938 106.742188 162.28125 110.742188 L 162.832031 120.445312 C 172.65625 116.664062 182.867188 114.980469 193.257812 115.414062 " fill-opacity="1" fill-rule="nonzero"/><path fill="#ff3131" d="M 266.675781 190.625 C 269.351562 183.34375 267.015625 175.621094 261.53125 172.792969 C 261.273438 175.054688 260.972656 177.265625 260.652344 179.449219 C 260.652344 179.46875 260.652344 179.507812 260.652344 179.535156 C 260.640625 179.542969 260.640625 179.554688 260.640625 179.554688 C 259.496094 187.277344 257.976562 194.378906 256.132812 200.460938 C 260.59375 199.589844 264.746094 195.875 266.675781 190.625 " fill-opacity="1" fill-rule="nonzero"/><path fill="#ff3131" d="M 262.050781 167.6875 C 262.203125 167.734375 262.363281 167.78125 262.503906 167.839844 C 271.015625 171.234375 274.929688 182.203125 271.214844 192.300781 C 270.863281 193.253906 270.445312 194.164062 269.992188 195.03125 C 281.859375 195.117188 290.589844 193 295.941406 188.699219 C 298.898438 186.324219 300.621094 182.890625 300.789062 179.035156 C 300.960938 175.082031 299.417969 171.242188 296.554688 168.507812 L 262.191406 135.621094 L 262.9375 144.8125 C 262.949219 144.878906 262.949219 144.945312 262.949219 145.003906 L 262.949219 147.453125 C 262.949219 154.308594 262.636719 161.125 262.050781 167.6875 " fill-opacity="1" fill-rule="nonzero"/><path fill="#ff3131" d="M 244.394531 141.019531 C 246.34375 144.53125 248.328125 149.066406 249.152344 154.117188 L 250.484375 153.191406 C 251.082031 152.785156 251.820312 152.652344 252.519531 152.839844 C 253.210938 153.039062 253.785156 153.53125 254.078125 154.183594 C 254.429688 154.976562 256.007812 158.5625 257.550781 162.957031 C 257.851562 158.675781 258.023438 154.316406 258.078125 149.949219 L 254.496094 147.109375 C 252.40625 145.570312 249.011719 143.328125 244.394531 141.019531 " fill-opacity="1" fill-rule="nonzero"/><path fill="#ff3131" d="M 273.332031 249.734375 C 273.039062 249.660156 272.746094 249.632812 272.460938 249.632812 C 271.742188 249.632812 271.035156 249.828125 270.417969 250.226562 C 269.539062 250.765625 268.933594 251.625 268.699219 252.636719 C 268.226562 254.707031 269.53125 256.789062 271.609375 257.261719 L 281.5 259.53125 C 283.570312 260.003906 285.652344 258.699219 286.125 256.628906 C 286.351562 255.617188 286.179688 254.585938 285.632812 253.714844 C 285.085938 252.835938 284.222656 252.230469 283.222656 251.996094 L 273.332031 249.734375 " fill-opacity="1" fill-rule="nonzero"/><path fill="#ff3131" d="M 47.609375 252.03125 L 49.785156 276.855469 L 78.4375 274.339844 L 76.253906 249.507812 L 47.609375 252.03125 " fill-opacity="1" fill-rule="nonzero"/><path fill="#ff3131" d="M 127.183594 362.46875 C 127.804688 363.660156 127.34375 365.113281 126.152344 365.738281 C 125.800781 365.917969 125.414062 366.011719 125.046875 366.011719 C 124.164062 366.011719 123.324219 365.53125 122.890625 364.707031 C 120.109375 359.347656 115.957031 356.101562 110.246094 354.761719 L 95.582031 360.019531 C 95.535156 360.039062 95.46875 360.027344 95.410156 360.039062 C 95.390625 360.046875 95.371094 360.054688 95.34375 360.066406 C 95.222656 361.125 94.917969 362.144531 94.4375 363.074219 C 93.765625 364.339844 92.773438 365.332031 91.609375 366.003906 C 92.480469 367.136719 93.140625 368.460938 93.433594 369.8125 C 93.765625 371.328125 93.574219 373.238281 93.007812 374.996094 L 145.175781 374.996094 L 145.175781 360.804688 C 137.347656 356.640625 129.007812 354.390625 120.289062 354.117188 C 123.085938 356.234375 125.394531 359.023438 127.183594 362.46875 " fill-opacity="1" fill-rule="nonzero"/><path fill="#ff3131" d="M 263.742188 327.519531 C 265.898438 326.082031 272.273438 322.148438 277.453125 322.101562 C 270.9375 308.066406 263.148438 297.164062 255.183594 288.710938 L 255.183594 334.921875 C 257.625 332.105469 260.707031 329.542969 263.742188 327.519531 " fill-opacity="1" fill-rule="nonzero"/><path fill="#ff3131" d="M 113.6875 347.867188 L 113.292969 349.511719 C 124.507812 348.613281 135.199219 350.570312 145.175781 355.386719 L 145.175781 288.058594 C 133.621094 300.304688 122.710938 317.648438 115.316406 342.222656 L 113.6875 347.867188 " fill-opacity="1" fill-rule="nonzero"/><path fill="#ff3131" d="M 200.570312 265.847656 C 193.230469 265.847656 187.652344 263.332031 185.355469 262.09375 C 175.8125 265.234375 162.78125 271.359375 150.019531 283.246094 L 150.019531 374.996094 L 250.34375 374.996094 L 250.34375 345.492188 C 250.34375 345.277344 250.324219 345.050781 250.34375 344.832031 L 250.34375 283.871094 C 236.566406 270.953125 222.96875 264.921875 215.28125 262.3125 C 209.976562 264.929688 204.957031 265.847656 200.570312 265.847656 " fill-opacity="1" fill-rule="nonzero"/><g clip-path="url(#3faf2a2e41)"><path fill="#ff3131" d="M 315.210938 251.003906 C 314.964844 250.085938 314.378906 249.308594 313.546875 248.835938 C 312.441406 248.183594 311.097656 248.230469 310.011719 248.855469 C 309.800781 249.933594 309.453125 250.984375 308.886719 251.957031 L 303.484375 261.28125 C 303.742188 262.160156 304.308594 262.925781 305.121094 263.398438 C 306.8125 264.382812 309.015625 263.796875 310 262.09375 L 314.851562 253.714844 C 315.324219 252.894531 315.457031 251.929688 315.210938 251.003906 " fill-opacity="1" fill-rule="nonzero"/></g><path fill="#ff3131" d="M 111.542969 265.867188 L 110.265625 251.34375 C 110.152344 250.066406 109.554688 248.914062 108.574219 248.089844 C 107.609375 247.285156 106.398438 246.90625 105.160156 246.984375 L 107.277344 271.046875 C 109.859375 270.773438 111.769531 268.46875 111.542969 265.867188 " fill-opacity="1" fill-rule="nonzero"/><path fill="#ff3131" d="M 302.691406 267.585938 C 301.71875 267.019531 300.921875 266.234375 300.261719 265.367188 C 299.230469 266.148438 298.046875 266.738281 296.761719 267.078125 C 295.921875 267.304688 295.050781 267.417969 294.191406 267.417969 C 292.46875 267.417969 290.769531 266.964844 289.234375 266.074219 C 288.082031 265.414062 287.117188 264.515625 286.332031 263.484375 C 285.113281 264.109375 283.761719 264.46875 282.363281 264.46875 C 281.71875 264.46875 281.066406 264.390625 280.414062 264.25 L 271.035156 262.09375 L 274.257812 273.261719 C 276.046875 279.484375 281.613281 283.746094 287.863281 283.746094 C 287.988281 283.746094 288.101562 283.746094 288.222656 283.738281 C 288.242188 283.738281 288.261719 283.738281 288.28125 283.738281 C 289.59375 283.738281 290.671875 284.789062 290.703125 286.101562 C 290.738281 287.433594 289.679688 288.550781 288.347656 288.578125 C 288.1875 288.589844 288.027344 288.589844 287.863281 288.589844 C 287.316406 288.589844 286.777344 288.503906 286.238281 288.445312 L 280.941406 337.058594 C 280.8125 338.296875 279.761719 339.214844 278.542969 339.214844 C 278.445312 339.214844 278.363281 339.214844 278.277344 339.207031 C 276.941406 339.054688 275.988281 337.863281 276.128906 336.53125 L 277.171875 326.953125 C 275.003906 327.09375 271.164062 328.378906 266.429688 331.546875 C 259.722656 336.019531 255.222656 341.625 255.203125 345.390625 C 262.664062 359.222656 270.722656 366.902344 279.148438 368.199219 C 287.488281 369.464844 294.898438 364.160156 299.664062 359.480469 C 306.332031 352.917969 310.027344 343.375 309.800781 333.304688 L 308.875 285.136719 C 308.828125 285.164062 308.789062 285.203125 308.734375 285.242188 L 307.515625 286.027344 C 307.105469 286.28125 306.652344 286.414062 306.210938 286.414062 C 305.414062 286.414062 304.628906 286.015625 304.167969 285.296875 C 303.449219 284.171875 303.769531 282.667969 304.894531 281.949219 L 306.113281 281.167969 C 310.105469 278.605469 312.589844 274.246094 312.769531 269.507812 L 312.894531 266.207031 C 311.296875 267.824219 309.121094 268.710938 306.890625 268.710938 C 305.460938 268.710938 304.015625 268.351562 302.691406 267.585938 " fill-opacity="1" fill-rule="nonzero"/><g clip-path="url(#20abe025de)"><path fill="#ff3131" d="M 47.59375 281.902344 C 47.023438 281.902344 46.46875 281.707031 46.03125 281.335938 C 45.539062 280.921875 45.226562 280.335938 45.179688 279.691406 L 42.570312 250.039062 C 42.457031 248.703125 43.441406 247.53125 44.773438 247.417969 L 78.238281 244.476562 C 78.902344 244.410156 79.515625 244.621094 80.007812 245.035156 C 80.5 245.441406 80.8125 246.039062 80.867188 246.671875 L 83.46875 276.324219 C 83.582031 277.65625 82.597656 278.839844 81.265625 278.953125 L 47.800781 281.894531 C 47.726562 281.894531 47.660156 281.902344 47.59375 281.902344 Z M 77.046875 283.285156 L 103.289062 280.976562 L 99.570312 238.644531 L 37.964844 244.050781 L 41.683594 286.386719 L 77.046875 283.285156 " fill-opacity="1" fill-rule="nonzero"/></g><path fill="#ff3131" d="M 291.695312 242 C 292.355469 240.867188 293.214844 239.917969 294.191406 239.152344 L 290.257812 210.710938 C 290.050781 209.140625 288.648438 207.996094 287.070312 208.140625 C 286.246094 208.195312 285.511719 208.582031 284.988281 209.226562 C 284.46875 209.859375 284.234375 210.652344 284.335938 211.476562 L 286.511719 240.183594 C 286.597656 241.253906 285.953125 242.253906 284.953125 242.632812 C 283.941406 243.011719 282.804688 242.679688 282.164062 241.8125 L 263.203125 216.402344 C 262.464844 215.371094 261.113281 215.070312 260.054688 215.675781 C 259.496094 215.996094 259.089844 216.507812 258.921875 217.121094 C 258.75 217.746094 258.835938 218.398438 259.15625 218.957031 L 274.085938 244.96875 C 274.199219 244.988281 274.304688 244.988281 274.410156 245.007812 L 284.300781 247.277344 C 285.566406 247.570312 286.703125 248.144531 287.695312 248.914062 L 291.695312 242 " fill-opacity="1" fill-rule="nonzero"/><path fill="#ff3131" d="M 87.128906 355.015625 L 75.5625 357.523438 C 74.257812 357.816406 72.960938 356.984375 72.679688 355.679688 C 72.394531 354.375 73.226562 353.078125 74.53125 352.792969 L 86.105469 350.277344 C 86.917969 350.109375 87.382812 349.425781 87.589844 349.039062 C 88.007812 348.234375 88.121094 347.207031 87.902344 346.203125 C 87.683594 345.191406 87.15625 344.300781 86.4375 343.746094 C 86.097656 343.480469 85.386719 343.046875 84.574219 343.234375 L 64.472656 347.59375 C 63.070312 347.894531 62.25 349.769531 62.664062 351.679688 C 63.082031 353.589844 64.601562 354.949219 66.003906 354.648438 C 67.308594 354.363281 68.59375 355.195312 68.878906 356.5 C 68.886719 356.519531 68.878906 356.539062 68.878906 356.558594 C 68.878906 356.566406 68.886719 356.566406 68.886719 356.578125 C 69.171875 357.882812 68.339844 359.167969 67.035156 359.460938 C 65.644531 359.761719 64.820312 361.625 65.226562 363.546875 C 65.644531 365.457031 67.164062 366.808594 68.566406 366.503906 C 69.859375 366.222656 71.15625 367.054688 71.441406 368.359375 C 71.722656 369.671875 70.902344 370.957031 69.597656 371.242188 C 69.339844 371.300781 69.09375 371.300781 68.847656 371.316406 C 68.160156 371.480469 67.574219 373.160156 67.628906 374.023438 C 67.65625 374.410156 67.769531 374.730469 67.882812 374.996094 L 87.714844 374.996094 C 88.300781 374.222656 89 372.207031 88.707031 370.84375 C 88.28125 368.917969 86.503906 367.488281 85.972656 367.601562 L 76.714844 369.617188 C 76.535156 369.652344 76.367188 369.671875 76.195312 369.671875 C 75.082031 369.671875 74.078125 368.898438 73.832031 367.761719 C 73.546875 366.457031 74.378906 365.164062 75.6875 364.878906 L 88.660156 362.0625 C 89.480469 361.882812 89.945312 361.210938 90.144531 360.820312 C 90.570312 360.019531 90.683594 358.988281 90.464844 357.984375 C 90.050781 356.074219 88.527344 354.714844 87.128906 355.015625 " fill-opacity="1" fill-rule="nonzero"/><path fill="#ff3131" d="M 91.714844 351.535156 C 92.90625 352.398438 93.898438 353.617188 94.558594 355.074219 C 94.9375 354.769531 95.222656 354.421875 95.410156 354.117188 C 96.222656 352.824219 96.449219 350.976562 96.023438 349.191406 C 95.496094 346.96875 94.058594 345.230469 92.460938 344.605469 C 92.515625 344.792969 92.59375 344.972656 92.640625 345.171875 C 93.101562 347.300781 92.828125 349.476562 91.875 351.289062 C 91.828125 351.375 91.761719 351.453125 91.714844 351.535156 " fill-opacity="1" fill-rule="nonzero"/><path fill="#ff3131" d="M 67.714844 288.96875 L 72.226562 340.957031 L 79.609375 339.347656 L 75.0625 288.316406 L 67.714844 288.96875 " fill-opacity="1" fill-rule="nonzero"/></svg>