<svg xmlns="http://www.w3.org/2000/svg" xmlns:xlink="http://www.w3.org/1999/xlink" width="500" zoomAndPan="magnify" viewBox="0 0 375 374.999991" height="500" preserveAspectRatio="xMidYMid meet" version="1.0"><defs><clipPath id="dc322956f4"><path d="M 37.5 23 L 346.5 23 L 346.5 333.378906 L 37.5 333.378906 Z M 37.5 23 " clip-rule="nonzero"/></clipPath></defs><g clip-path="url(#dc322956f4)"><path fill="#65cf72" d="M 301.445312 68.121094 C 272.40625 39.066406 233.785156 23.035156 192.628906 23.035156 C 107.835938 23.035156 38.820312 91.992188 38.789062 176.761719 C 38.789062 203.851562 45.867188 230.316406 59.328125 253.617188 L 37.5 333.28125 L 119.054688 311.894531 C 141.527344 324.152344 166.824219 330.59375 192.566406 330.609375 L 192.628906 330.609375 C 277.410156 330.609375 346.4375 261.640625 346.453125 176.886719 C 346.453125 135.804688 330.488281 97.191406 301.433594 68.121094 Z M 192.628906 304.65625 L 192.582031 304.65625 C 169.648438 304.65625 147.132812 298.488281 127.5 286.84375 L 122.832031 284.066406 L 74.433594 296.753906 L 87.34375 249.597656 L 84.304688 244.765625 C 71.5 224.425781 64.746094 200.90625 64.761719 176.761719 C 64.792969 106.320312 122.15625 48.992188 192.675781 48.992188 C 226.828125 48.992188 258.925781 62.308594 283.074219 86.46875 C 307.21875 110.613281 320.496094 142.722656 320.480469 176.871094 C 320.449219 247.328125 263.085938 304.65625 192.613281 304.65625 Z M 262.765625 208.960938 C 258.925781 207.042969 240.03125 197.746094 236.5 196.476562 C 232.96875 195.1875 230.421875 194.558594 227.859375 198.390625 C 225.292969 202.242188 217.925781 210.894531 215.683594 213.457031 C 213.445312 216.019531 211.203125 216.339844 207.351562 214.40625 C 203.511719 212.488281 191.125 208.425781 176.433594 195.339844 C 165.015625 185.152344 157.292969 172.574219 155.050781 168.722656 C 152.8125 164.875 154.820312 162.800781 156.742188 160.886719 C 158.460938 159.167969 160.578125 156.390625 162.511719 154.152344 C 164.429688 151.910156 165.074219 150.300781 166.351562 147.738281 C 167.640625 145.175781 166.996094 142.9375 166.027344 141.003906 C 165.058594 139.085938 157.386719 120.171875 154.175781 112.484375 C 151.0625 105 147.882812 106.011719 145.535156 105.890625 C 143.292969 105.78125 140.730469 105.75 138.167969 105.75 C 135.601562 105.75 131.445312 106.703125 127.914062 110.554688 C 124.382812 114.402344 114.464844 123.699219 114.464844 142.597656 C 114.464844 161.5 128.234375 179.769531 130.167969 182.347656 C 132.089844 184.90625 157.277344 223.703125 195.835938 240.347656 C 205 244.304688 212.171875 246.667969 217.757812 248.449219 C 226.96875 251.378906 235.347656 250.964844 241.964844 249.964844 C 249.347656 248.863281 264.699219 240.671875 267.90625 231.695312 C 271.113281 222.722656 271.113281 215.035156 270.148438 213.425781 C 269.179688 211.816406 266.617188 210.863281 262.78125 208.929688 Z M 262.765625 208.960938 " fill-opacity="1" fill-rule="evenodd"/></g></svg>