<svg xmlns="http://www.w3.org/2000/svg" xmlns:xlink="http://www.w3.org/1999/xlink" width="500" zoomAndPan="magnify" viewBox="0 0 375 374.999991" height="500" preserveAspectRatio="xMidYMid meet" version="1.0"><path fill="#f41414" d="M 45.246094 236.691406 C 65.421875 294.539062 118.714844 334.15625 179.839844 338.433594 C 253.441406 343.585938 319.078125 310.640625 346.164062 257.644531 C 381.71875 188.085938 337.414062 110.285156 333.800781 104.15625 C 330.667969 98.84375 288.3125 29.617188 206.191406 19.117188 C 191.082031 17.1875 152.363281 12.839844 113.351562 34.722656 C 77.078125 55.070312 50.734375 92.066406 41.773438 139.890625 C 39.066406 154.339844 29.984375 191.003906 44.542969 234.632812 C 44.773438 235.320312 45.007812 236.007812 45.246094 236.691406 Z M 45.246094 236.691406 " fill-opacity="1" fill-rule="nonzero"/><path fill="#ffffff" d="M 135.757812 213.558594 C 135.824219 224.828125 135.722656 235.710938 136.734375 246.65625 C 138.347656 264.714844 144.984375 274.851562 163.21875 269.722656 C 174.910156 266.433594 186.605469 259.785156 198.113281 253.167969 C 210.007812 246.179688 221.121094 239.0625 232.558594 231.472656 C 240.925781 225.898438 249.492188 220.046875 257.40625 214.007812 C 266.261719 207.25 279.757812 199.035156 283.441406 191.324219 C 287.921875 182.742188 284.707031 174.191406 279.210938 166.890625 C 272.128906 157.445312 258.984375 149.0625 249.753906 141.683594 C 235.363281 130.332031 219.828125 120.269531 204.203125 110.082031 C 190.59375 101.476562 177.753906 92.671875 164.304688 87.542969 C 161.859375 86.664062 159.496094 86.03125 157.039062 85.765625 C 146.988281 84.378906 141.488281 92.792969 139.503906 103.6875 C 137.351562 114.492188 136.863281 125.222656 136.355469 137.421875 C 135.542969 162.949219 135.839844 188.261719 135.757812 213.460938 Z M 135.757812 213.558594 " fill-opacity="1" fill-rule="nonzero"/></svg>