<svg xmlns="http://www.w3.org/2000/svg" xmlns:xlink="http://www.w3.org/1999/xlink" width="500" zoomAndPan="magnify" viewBox="0 0 375 374.999991" height="500" preserveAspectRatio="xMidYMid meet" version="1.0"><defs><clipPath id="54f4362cc8"><path d="M 40.335938 40.335938 L 334.335938 40.335938 L 334.335938 334.335938 L 40.335938 334.335938 Z M 40.335938 40.335938 " clip-rule="nonzero"/></clipPath></defs><g clip-path="url(#54f4362cc8)"><path fill="#000000" d="M 334.386719 187.359375 C 334.386719 189.765625 334.328125 192.171875 334.210938 194.574219 C 334.089844 196.976562 333.914062 199.375 333.679688 201.769531 C 333.441406 204.167969 333.148438 206.554688 332.796875 208.933594 C 332.441406 211.3125 332.03125 213.683594 331.5625 216.042969 C 331.09375 218.402344 330.566406 220.75 329.980469 223.085938 C 329.394531 225.417969 328.753906 227.738281 328.054688 230.039062 C 327.355469 232.34375 326.601562 234.625 325.792969 236.890625 C 324.980469 239.15625 324.117188 241.402344 323.195312 243.625 C 322.273438 245.847656 321.300781 248.046875 320.269531 250.222656 C 319.242188 252.398438 318.160156 254.546875 317.027344 256.667969 C 315.890625 258.789062 314.707031 260.882812 313.46875 262.945312 C 312.230469 265.011719 310.945312 267.042969 309.609375 269.042969 C 308.269531 271.042969 306.886719 273.011719 305.453125 274.945312 C 304.019531 276.875 302.539062 278.773438 301.011719 280.632812 C 299.488281 282.492188 297.914062 284.3125 296.300781 286.097656 C 294.683594 287.878906 293.023438 289.621094 291.324219 291.324219 C 289.621094 293.023438 287.878906 294.683594 286.097656 296.300781 C 284.3125 297.914062 282.492188 299.488281 280.632812 301.011719 C 278.773438 302.539062 276.875 304.019531 274.945312 305.453125 C 273.011719 306.886719 271.042969 308.269531 269.042969 309.609375 C 267.042969 310.945312 265.011719 312.230469 262.945312 313.46875 C 260.882812 314.707031 258.789062 315.890625 256.667969 317.027344 C 254.546875 318.160156 252.398438 319.242188 250.222656 320.269531 C 248.046875 321.300781 245.847656 322.273438 243.625 323.195312 C 241.402344 324.117188 239.15625 324.980469 236.890625 325.792969 C 234.625 326.601562 232.34375 327.355469 230.039062 328.054688 C 227.738281 328.753906 225.417969 329.394531 223.085938 329.980469 C 220.75 330.566406 218.402344 331.09375 216.042969 331.5625 C 213.683594 332.03125 211.3125 332.441406 208.933594 332.796875 C 206.554688 333.148438 204.167969 333.441406 201.769531 333.679688 C 199.375 333.914062 196.976562 334.089844 194.574219 334.210938 C 192.171875 334.328125 189.765625 334.386719 187.359375 334.386719 C 184.953125 334.386719 182.550781 334.328125 180.144531 334.210938 C 177.742188 334.089844 175.34375 333.914062 172.949219 333.679688 C 170.554688 333.441406 168.167969 333.148438 165.789062 332.796875 C 163.40625 332.441406 161.035156 332.03125 158.675781 331.5625 C 156.316406 331.09375 153.96875 330.566406 151.636719 329.980469 C 149.300781 329.394531 146.984375 328.753906 144.679688 328.054688 C 142.378906 327.355469 140.09375 326.601562 137.828125 325.792969 C 135.5625 324.980469 133.320312 324.117188 131.097656 323.195312 C 128.871094 322.273438 126.671875 321.300781 124.5 320.269531 C 122.324219 319.242188 120.175781 318.160156 118.054688 317.027344 C 115.929688 315.890625 113.835938 314.707031 111.773438 313.46875 C 109.710938 312.230469 107.679688 310.945312 105.675781 309.609375 C 103.675781 308.269531 101.710938 306.886719 99.777344 305.453125 C 97.84375 304.019531 95.949219 302.539062 94.089844 301.011719 C 92.226562 299.488281 90.40625 297.914062 88.625 296.300781 C 86.839844 294.683594 85.097656 293.023438 83.398438 291.324219 C 81.695312 289.621094 80.039062 287.878906 78.421875 286.097656 C 76.804688 284.3125 75.234375 282.492188 73.707031 280.632812 C 72.179688 278.773438 70.703125 276.875 69.269531 274.945312 C 67.835938 273.011719 66.449219 271.042969 65.113281 269.042969 C 63.777344 267.042969 62.488281 265.011719 61.25 262.945312 C 60.015625 260.882812 58.828125 258.789062 57.695312 256.667969 C 56.5625 254.546875 55.480469 252.398438 54.449219 250.222656 C 53.421875 248.046875 52.445312 245.847656 51.527344 243.625 C 50.605469 241.402344 49.738281 239.15625 48.929688 236.890625 C 48.117188 234.625 47.363281 232.34375 46.664062 230.039062 C 45.964844 227.738281 45.324219 225.417969 44.742188 223.085938 C 44.15625 220.75 43.628906 218.402344 43.160156 216.042969 C 42.691406 213.683594 42.277344 211.3125 41.925781 208.933594 C 41.574219 206.554688 41.277344 204.167969 41.042969 201.769531 C 40.804688 199.375 40.628906 196.976562 40.511719 194.574219 C 40.394531 192.171875 40.335938 189.765625 40.335938 187.359375 C 40.335938 184.953125 40.394531 182.550781 40.511719 180.144531 C 40.628906 177.742188 40.804688 175.34375 41.042969 172.949219 C 41.277344 170.554688 41.574219 168.167969 41.925781 165.789062 C 42.277344 163.40625 42.691406 161.035156 43.160156 158.675781 C 43.628906 156.316406 44.15625 153.96875 44.742188 151.636719 C 45.324219 149.300781 45.964844 146.984375 46.664062 144.679688 C 47.363281 142.378906 48.117188 140.09375 48.929688 137.828125 C 49.738281 135.5625 50.605469 133.320312 51.527344 131.097656 C 52.445312 128.871094 53.421875 126.671875 54.449219 124.5 C 55.480469 122.324219 56.5625 120.175781 57.695312 118.054688 C 58.828125 115.929688 60.015625 113.835938 61.25 111.773438 C 62.488281 109.710938 63.777344 107.679688 65.113281 105.675781 C 66.449219 103.675781 67.835938 101.710938 69.269531 99.777344 C 70.703125 97.84375 72.179688 95.949219 73.707031 94.089844 C 75.234375 92.226562 76.804688 90.40625 78.421875 88.625 C 80.039062 86.839844 81.695312 85.097656 83.398438 83.398438 C 85.097656 81.695312 86.839844 80.039062 88.625 78.421875 C 90.40625 76.804688 92.226562 75.234375 94.089844 73.707031 C 95.949219 72.179688 97.84375 70.703125 99.777344 69.269531 C 101.710938 67.835938 103.675781 66.449219 105.675781 65.113281 C 107.679688 63.777344 109.710938 62.488281 111.773438 61.25 C 113.835938 60.015625 115.929688 58.828125 118.054688 57.695312 C 120.175781 56.5625 122.324219 55.480469 124.5 54.449219 C 126.671875 53.421875 128.871094 52.445312 131.097656 51.527344 C 133.320312 50.605469 135.5625 49.738281 137.828125 48.929688 C 140.09375 48.117188 142.378906 47.363281 144.679688 46.664062 C 146.984375 45.964844 149.300781 45.324219 151.636719 44.742188 C 153.96875 44.15625 156.316406 43.628906 158.675781 43.160156 C 161.035156 42.691406 163.40625 42.277344 165.789062 41.925781 C 168.167969 41.574219 170.554688 41.277344 172.949219 41.042969 C 175.34375 40.804688 177.742188 40.628906 180.144531 40.511719 C 182.550781 40.394531 184.953125 40.335938 187.359375 40.335938 C 189.765625 40.335938 192.171875 40.394531 194.574219 40.511719 C 196.976562 40.628906 199.375 40.804688 201.769531 41.042969 C 204.167969 41.277344 206.554688 41.574219 208.933594 41.925781 C 211.3125 42.277344 213.683594 42.691406 216.042969 43.160156 C 218.402344 43.628906 220.75 44.15625 223.085938 44.742188 C 225.417969 45.324219 227.738281 45.964844 230.039062 46.664062 C 232.34375 47.363281 234.625 48.117188 236.890625 48.929688 C 239.15625 49.738281 241.402344 50.605469 243.625 51.527344 C 245.847656 52.445312 248.046875 53.421875 250.222656 54.449219 C 252.398438 55.480469 254.546875 56.5625 256.667969 57.695312 C 258.789062 58.828125 260.882812 60.015625 262.945312 61.25 C 265.011719 62.488281 267.042969 63.777344 269.042969 65.113281 C 271.042969 66.449219 273.011719 67.835938 274.945312 69.269531 C 276.875 70.703125 278.773438 72.179688 280.632812 73.707031 C 282.492188 75.234375 284.3125 76.804688 286.097656 78.421875 C 287.878906 80.039062 289.621094 81.695312 291.324219 83.398438 C 293.023438 85.097656 294.683594 86.839844 296.300781 88.625 C 297.914062 90.40625 299.488281 92.226562 301.011719 94.089844 C 302.539062 95.949219 304.019531 97.84375 305.453125 99.777344 C 306.886719 101.710938 308.269531 103.675781 309.609375 105.675781 C 310.945312 107.679688 312.230469 109.710938 313.46875 111.773438 C 314.707031 113.835938 315.890625 115.929688 317.027344 118.054688 C 318.160156 120.175781 319.242188 122.324219 320.269531 124.5 C 321.300781 126.671875 322.273438 128.871094 323.195312 131.097656 C 324.117188 133.320312 324.980469 135.5625 325.792969 137.828125 C 326.601562 140.09375 327.355469 142.378906 328.054688 144.679688 C 328.753906 146.984375 329.394531 149.300781 329.980469 151.636719 C 330.566406 153.96875 331.09375 156.316406 331.5625 158.675781 C 332.03125 161.035156 332.441406 163.40625 332.796875 165.789062 C 333.148438 168.167969 333.441406 170.554688 333.679688 172.949219 C 333.914062 175.34375 334.089844 177.742188 334.210938 180.144531 C 334.328125 182.550781 334.386719 184.953125 334.386719 187.359375 Z M 334.386719 187.359375 " fill-opacity="1" fill-rule="nonzero"/></g><path fill="#25f4ee" d="M 167.84375 166.339844 L 167.84375 158.363281 C 165.167969 158 162.453125 157.777344 159.683594 157.777344 C 126.300781 157.777344 99.148438 184.933594 99.148438 218.3125 C 99.148438 238.796875 109.382812 256.917969 124.996094 267.882812 C 114.917969 257.0625 108.9375 242.570312 108.9375 226.65625 C 108.9375 193.757812 135.128906 167.097656 167.84375 166.339844 Z M 167.84375 166.339844 " fill-opacity="1" fill-rule="nonzero"/><path fill="#25f4ee" d="M 169.265625 254.476562 C 184.160156 254.476562 196.484375 242.453125 197.035156 227.699219 L 197.164062 96.066406 L 221.03125 96.066406 C 221.03125 96.066406 220.992188 95.882812 220.992188 95.882812 C 220.496094 93.179688 220.21875 90.386719 220.21875 87.542969 L 187.335938 87.542969 L 187.28125 219.359375 C 186.734375 234.125 174.578125 245.964844 159.683594 245.964844 C 155.050781 245.964844 150.703125 244.800781 146.863281 242.792969 C 151.890625 249.75 160.050781 254.488281 169.277344 254.488281 Z M 169.265625 254.476562 " fill-opacity="1" fill-rule="nonzero"/><path fill="#25f4ee" d="M 265.992188 141 L 265.992188 133.273438 C 256.800781 133.273438 248.25 130.542969 241.070312 125.859375 C 247.453125 133.195312 256.132812 138.886719 265.992188 140.988281 Z M 265.992188 141 " fill-opacity="1" fill-rule="nonzero"/><path fill="#fe2c55" d="M 241.070312 125.871094 C 234.070312 117.828125 229.816406 107.347656 229.816406 95.871094 L 220.859375 95.871094 C 223.183594 108.402344 230.769531 119.160156 241.070312 125.871094 Z M 241.070312 125.871094 " fill-opacity="1" fill-rule="nonzero"/><path fill="#fe2c55" d="M 159.683594 190.402344 C 144.433594 190.402344 131.851562 203.050781 131.851562 218.300781 C 131.851562 228.914062 138.050781 238.144531 146.851562 242.777344 C 143.574219 238.234375 141.617188 232.675781 141.617188 226.65625 C 141.617188 211.40625 154.019531 199.003906 169.265625 199.003906 C 172.113281 199.003906 174.839844 199.476562 177.425781 200.285156 L 177.425781 166.707031 C 174.75 166.339844 172.035156 166.121094 169.265625 166.121094 C 168.78125 166.121094 168.3125 166.144531 167.84375 166.160156 L 167.710938 166.160156 C 167.710938 166.160156 167.621094 191.578125 167.621094 191.578125 C 165.035156 190.769531 162.53125 190.414062 159.683594 190.414062 Z M 159.683594 190.402344 " fill-opacity="1" fill-rule="nonzero"/><path fill="#fe2c55" d="M 265.992188 140.609375 L 265.835938 140.585938 L 265.835938 165.976562 C 248.769531 165.976562 232.921875 160.363281 220.023438 151.105469 L 220.023438 218.300781 C 220.023438 251.683594 193.066406 278.667969 159.683594 278.667969 C 146.785156 278.667969 134.828125 274.765625 124.984375 267.859375 C 136.039062 279.726562 151.796875 287.179688 169.265625 287.179688 C 202.648438 287.179688 229.800781 260.023438 229.800781 226.644531 L 229.800781 159.800781 C 242.699219 169.058594 258.511719 174.515625 275.558594 174.515625 L 275.558594 141.628906 C 272.269531 141.628906 269.070312 141.277344 265.976562 140.609375 Z M 265.992188 140.609375 " fill-opacity="1" fill-rule="nonzero"/><path fill="#ffffff" d="M 220.21875 218.300781 L 220.21875 151.460938 C 233.117188 160.714844 248.929688 166.171875 265.976562 166.171875 L 265.976562 140.609375 C 256.121094 138.496094 247.453125 133.207031 241.054688 125.871094 C 230.753906 119.148438 223.3125 108.402344 220.992188 95.871094 L 196.902344 95.871094 L 196.851562 227.6875 C 196.304688 242.453125 184.148438 254.292969 169.253906 254.292969 C 160.023438 254.292969 151.863281 249.738281 146.835938 242.765625 C 138.039062 238.132812 132.019531 228.914062 132.019531 218.289062 C 132.019531 203.039062 144.421875 190.636719 159.671875 190.636719 C 162.515625 190.636719 165.246094 191.105469 167.828125 191.917969 L 167.828125 166.132812 C 135.101562 166.902344 108.714844 193.730469 108.714844 226.644531 C 108.714844 242.558594 114.90625 257.046875 124.96875 267.871094 C 134.800781 274.777344 146.757812 278.835938 159.671875 278.835938 C 193.050781 278.835938 220.207031 251.683594 220.207031 218.300781 Z M 220.21875 218.300781 " fill-opacity="1" fill-rule="nonzero"/></svg>