<svg xmlns="http://www.w3.org/2000/svg" xmlns:xlink="http://www.w3.org/1999/xlink" width="500" zoomAndPan="magnify" viewBox="0 0 375 374.999991" height="500" preserveAspectRatio="xMidYMid meet" version="1.0"><defs><clipPath id="7110ddd754"><path d="M 28 92.667969 L 346.699219 92.667969 L 346.699219 300 L 28 300 Z M 28 92.667969 " clip-rule="nonzero"/></clipPath></defs><g clip-path="url(#7110ddd754)"><path fill="#fe0000" d="M 143.574219 93.046875 C 176.695312 92.664062 209.722656 94.242188 242.652344 97.78125 C 257.597656 99.347656 272.355469 101.964844 286.925781 105.632812 C 319.152344 114.394531 338.097656 135.277344 343.75 168.285156 C 345.539062 180.300781 346.394531 192.390625 346.316406 204.550781 C 346.546875 218.035156 344.972656 231.292969 341.59375 244.332031 C 334.746094 268.695312 319.222656 284.4375 295.023438 291.558594 C 284.824219 294.210938 274.476562 296.015625 263.976562 296.972656 C 213.484375 301.171875 163.09375 300.179688 112.800781 293.996094 C 100.003906 292.441406 87.40625 289.914062 75.007812 286.417969 C 62.1875 282.753906 51.523438 275.851562 43.015625 265.714844 C 37.332031 258.011719 33.460938 249.441406 31.40625 240.003906 C 30.335938 235 29.613281 229.949219 29.246094 224.847656 C 28.894531 207.078125 28.667969 189.308594 28.574219 171.53125 C 28.074219 160.640625 29.109375 149.90625 31.675781 139.324219 C 37.269531 119.675781 49.824219 106.910156 69.335938 101.03125 C 79.066406 98.320312 88.964844 96.515625 99.03125 95.617188 C 113.890625 94.191406 128.738281 93.335938 143.574219 93.046875 Z M 138.988281 104.683594 C 169.921875 104.167969 200.785156 105.386719 231.582031 108.335938 C 247.105469 109.800781 262.492188 112.144531 277.746094 115.375 C 288.339844 117.484375 298.148438 121.453125 307.171875 127.28125 C 318.578125 135.65625 326.183594 146.707031 329.984375 160.433594 C 332.480469 169.835938 333.917969 179.398438 334.304688 189.121094 C 335.167969 202.523438 334.71875 215.875 332.953125 229.175781 C 331.488281 240.714844 327.53125 251.269531 321.074219 260.84375 C 313.886719 270.246094 304.574219 276.609375 293.132812 279.921875 C 279.398438 283.421875 265.449219 285.589844 251.289062 286.417969 C 210.742188 289.046875 170.246094 288.324219 129.808594 284.253906 C 115.738281 282.867188 101.789062 280.703125 87.964844 277.757812 C 79.601562 276.046875 71.683594 273.160156 64.207031 269.097656 C 53.542969 262.390625 46.660156 252.875 43.554688 240.542969 C 41.9375 233.964844 40.945312 227.289062 40.585938 220.515625 C 40.601562 203.828125 40.378906 187.136719 39.910156 170.449219 C 39.792969 161.222656 40.738281 152.109375 42.746094 143.113281 C 46.03125 129.449219 54.082031 119.84375 66.90625 114.292969 C 72.660156 112.007812 78.601562 110.382812 84.722656 109.417969 C 102.746094 106.636719 120.835938 105.054688 138.988281 104.683594 Z M 157.074219 158.8125 C 159.363281 158.832031 161.613281 159.148438 163.824219 159.757812 C 170.242188 161.757812 176.453125 164.285156 182.449219 167.335938 C 195.117188 173.816406 206.90625 181.574219 217.816406 190.613281 C 219.039062 191.929688 220.34375 193.148438 221.730469 194.265625 C 223.519531 196.054688 225.050781 198.039062 226.320312 200.21875 C 226.492188 200.796875 226.398438 201.339844 226.050781 201.84375 C 224.472656 203.78125 222.71875 205.542969 220.785156 207.121094 C 204.253906 218.695312 186.167969 226.996094 166.523438 232.019531 C 163.636719 232.703125 160.710938 233.109375 157.75 233.238281 C 156.496094 233.273438 155.28125 233.09375 154.105469 232.695312 C 153.152344 231.691406 152.476562 230.519531 152.078125 229.175781 C 150.25 223.363281 149.167969 217.410156 148.839844 211.316406 C 147.929688 198.019531 148.828125 184.847656 151.539062 171.800781 C 152.328125 167.441406 153.859375 163.382812 156.128906 159.625 C 156.4375 159.316406 156.753906 159.046875 157.074219 158.8125 Z M 157.074219 158.8125 " fill-opacity="0.955" fill-rule="evenodd"/></g><path fill="#fe0000" d="M 155.722656 147.175781 C 159.386719 147.007812 162.988281 147.414062 166.523438 148.390625 C 175.949219 151.269531 184.949219 155.152344 193.519531 160.027344 C 206.828125 167.171875 219.019531 175.878906 230.097656 186.144531 C 232.96875 189.011719 235.304688 192.257812 237.117188 195.890625 C 238.515625 199.667969 238.335938 203.367188 236.578125 206.984375 C 233.753906 211.167969 230.289062 214.730469 226.183594 217.675781 C 209.128906 229.273438 190.589844 237.753906 170.570312 243.117188 C 164.621094 244.71875 158.59375 245.171875 152.484375 244.46875 C 148.378906 243.507812 145.273438 241.207031 143.171875 237.566406 C 140.683594 232.613281 139.0625 227.378906 138.3125 221.871094 C 137.808594 218.457031 137.449219 215.027344 137.230469 211.585938 C 136.375 197.660156 137.277344 183.859375 139.929688 170.179688 C 141.074219 163.945312 143.324219 158.171875 146.679688 152.855469 C 148.980469 149.777344 151.996094 147.882812 155.722656 147.175781 Z M 157.074219 158.8125 C 156.753906 159.046875 156.4375 159.316406 156.128906 159.625 C 153.859375 163.382812 152.328125 167.441406 151.539062 171.800781 C 148.828125 184.847656 147.929688 198.019531 148.839844 211.316406 C 149.167969 217.410156 150.25 223.363281 152.078125 229.175781 C 152.476562 230.519531 153.152344 231.691406 154.105469 232.695312 C 155.28125 233.09375 156.496094 233.273438 157.75 233.238281 C 160.710938 233.109375 163.636719 232.703125 166.523438 232.019531 C 186.167969 226.996094 204.253906 218.695312 220.785156 207.121094 C 222.71875 205.542969 224.472656 203.78125 226.050781 201.84375 C 226.398438 201.339844 226.492188 200.796875 226.320312 200.21875 C 225.050781 198.039062 223.519531 196.054688 221.730469 194.265625 C 220.34375 193.148438 219.039062 191.929688 217.816406 190.613281 C 206.90625 181.574219 195.117188 173.816406 182.449219 167.335938 C 176.453125 164.285156 170.242188 161.757812 163.824219 159.757812 C 161.613281 159.148438 159.363281 158.832031 157.074219 158.8125 Z M 157.074219 158.8125 " fill-opacity="0.953" fill-rule="evenodd"/></svg>