<svg xmlns="http://www.w3.org/2000/svg" xmlns:xlink="http://www.w3.org/1999/xlink" width="500" zoomAndPan="magnify" viewBox="0 0 375 374.999991" height="500" preserveAspectRatio="xMidYMid meet" version="1.0"><defs><clipPath id="8063329a9f"><path d="M 15.671875 159.132812 L 124 159.132812 L 124 234.132812 L 15.671875 234.132812 Z M 15.671875 159.132812 " clip-rule="nonzero"/></clipPath></defs><g clip-path="url(#8063329a9f)"><path fill="#ffffff" d="M 121.246094 170.867188 C 119.988281 166.25 116.453125 162.65625 111.738281 161.40625 C 103.410156 159.132812 69.695312 159.132812 69.695312 159.132812 C 69.695312 159.132812 36.058594 159.132812 27.730469 161.398438 C 23.089844 162.652344 19.476562 166.25 18.140625 170.867188 C 15.941406 179.15625 15.941406 196.59375 15.941406 196.59375 C 15.941406 196.59375 15.941406 214.035156 18.140625 222.40625 C 19.476562 226.941406 23.089844 230.617188 27.730469 231.867188 C 36.058594 234.132812 69.695312 234.132812 69.695312 234.132812 C 69.695312 234.132812 103.410156 234.132812 111.738281 231.867188 C 116.453125 230.617188 119.988281 226.941406 121.246094 222.40625 C 123.523438 214.035156 123.523438 196.597656 123.523438 196.597656 C 123.523438 196.597656 123.523438 179.15625 121.246094 170.867188 Z M 59.007812 212.710938 L 59.007812 180.5625 L 86.90625 196.597656 Z M 59.007812 212.710938 " fill-opacity="1" fill-rule="nonzero"/></g><path fill="#ffffff" d="M 146.425781 229.523438 L 146.425781 208.992188 L 133.96875 163.824219 L 144.773438 163.824219 L 149.253906 183.847656 C 150.277344 188.464844 151.332031 195.070312 151.804688 197.457031 L 151.886719 197.457031 C 152.355469 195.152344 153.378906 188.542969 154.4375 183.929688 L 159.078125 163.832031 L 169.882812 163.832031 L 157.269531 208.996094 L 157.269531 229.527344 L 146.425781 229.527344 Z M 146.425781 229.523438 " fill-opacity="1" fill-rule="nonzero"/><path fill="#ffffff" d="M 196.246094 203.554688 L 196.246094 207.390625 C 196.246094 224.4375 192.476562 230.226562 181.238281 230.226562 C 170 230.226562 166.226562 224.28125 166.226562 207.390625 L 166.226562 203.554688 C 166.226562 186.113281 170.707031 180.5625 181.472656 180.5625 C 192.238281 180.5625 196.246094 186.351562 196.246094 203.554688 Z M 185.242188 199.882812 C 185.242188 190.65625 184.382812 187.996094 181.3125 187.996094 C 178.242188 187.996094 177.222656 190.65625 177.222656 199.882812 L 177.222656 210.914062 C 177.222656 220.457031 178.167969 222.878906 181.15625 222.878906 C 184.375 222.878906 185.242188 220.457031 185.242188 210.914062 Z M 185.242188 199.882812 " fill-opacity="1" fill-rule="nonzero"/><path fill="#ffffff" d="M 200.796875 217.554688 L 200.796875 181.503906 L 211.644531 181.503906 L 211.644531 216.421875 C 211.644531 220.644531 212.589844 222.519531 214.832031 222.519531 C 216.519531 222.519531 218.171875 221.777344 219.347656 218.648438 L 219.347656 181.503906 L 230.195312 181.503906 L 230.195312 229.441406 L 221 229.441406 L 220.371094 222.988281 L 220.332031 222.988281 C 218.996094 227.566406 216.363281 230.378906 210.902344 230.378906 C 203.671875 230.378906 200.804688 225.765625 200.804688 217.554688 Z M 200.796875 217.554688 " fill-opacity="1" fill-rule="nonzero"/><path fill="#ffffff" d="M 237.8125 229.441406 L 237.8125 173.050781 L 227.085938 173.050781 L 227.085938 163.824219 L 259.386719 163.824219 L 259.386719 173.050781 L 248.660156 173.050781 L 248.660156 229.441406 Z M 237.8125 229.441406 " fill-opacity="1" fill-rule="nonzero"/><path fill="#ffffff" d="M 256.398438 217.554688 L 256.398438 181.503906 L 267.246094 181.503906 L 267.246094 216.421875 C 267.246094 220.644531 268.1875 222.519531 270.429688 222.519531 C 272.117188 222.519531 273.769531 221.777344 274.949219 218.648438 L 274.949219 181.503906 L 285.792969 181.503906 L 285.792969 229.441406 L 276.597656 229.441406 L 275.96875 222.988281 L 275.929688 222.988281 C 274.597656 227.566406 271.964844 230.378906 266.503906 230.378906 C 259.269531 230.378906 256.402344 225.765625 256.402344 217.554688 Z M 256.398438 217.554688 " fill-opacity="1" fill-rule="nonzero"/><path fill="#ffffff" d="M 321.894531 201.757812 L 321.894531 208.171875 C 321.894531 223.660156 318.59375 230.152344 311.28125 230.152344 C 306.84375 230.152344 303.503906 228.195312 301.773438 224.910156 L 301.734375 224.910156 L 301.027344 229.449219 L 291.59375 229.449219 L 291.59375 161.398438 L 302.046875 161.398438 L 302.046875 175.164062 C 302.046875 178.761719 302.125 182.359375 301.808594 186.664062 L 301.925781 186.664062 C 303.730469 183.0625 306.839844 180.5625 311.707031 180.5625 C 318.703125 180.5625 321.882812 185.101562 321.882812 201.757812 Z M 310.8125 201.757812 C 310.8125 190.65625 309.867188 188.230469 306.84375 188.230469 C 304.804688 188.230469 302.839844 190.027344 302.050781 193.46875 L 302.050781 219.945312 C 302.992188 221.78125 304.644531 222.566406 306.375 222.566406 C 309.632812 222.566406 310.8125 219.121094 310.8125 208.722656 Z M 310.8125 201.757812 " fill-opacity="1" fill-rule="nonzero"/><path fill="#ffffff" d="M 354.816406 208.917969 L 336.859375 208.917969 L 336.859375 211.535156 C 336.859375 219.984375 337.054688 222.875 340.554688 222.875 C 344.054688 222.875 344.796875 220.214844 344.875 214.738281 L 354.425781 215.167969 C 355.132812 225.609375 349.710938 230.226562 340.515625 230.226562 C 329.355469 230.226562 326.054688 222.957031 326.054688 209.734375 L 326.054688 201.363281 C 326.054688 187.445312 329.753906 180.636719 340.828125 180.636719 C 351.90625 180.636719 354.816406 186.429688 354.816406 200.894531 Z M 336.859375 199.253906 L 336.859375 202.890625 L 344.007812 202.890625 L 344.007812 199.253906 C 344.007812 190.414062 343.660156 187.914062 340.394531 187.914062 C 337.128906 187.914062 336.859375 190.496094 336.859375 199.253906 Z M 336.859375 199.253906 " fill-opacity="1" fill-rule="nonzero"/></svg>