<svg xmlns="http://www.w3.org/2000/svg" xmlns:xlink="http://www.w3.org/1999/xlink" width="500" zoomAndPan="magnify" viewBox="0 0 375 374.999991" height="500" preserveAspectRatio="xMidYMid meet" version="1.0"><defs><clipPath id="9421296f44"><path d="M 28.828125 30.960938 L 341.578125 30.960938 L 341.578125 343.710938 L 28.828125 343.710938 Z M 28.828125 30.960938 " clip-rule="nonzero"/></clipPath></defs><g clip-path="url(#9421296f44)"><path fill="#ffffff" d="M 28.828125 30.960938 L 341.617188 30.960938 L 341.617188 343.75 L 28.828125 343.75 Z M 28.828125 30.960938 " fill-opacity="1" fill-rule="nonzero"/></g><path fill="#000000" d="M 228.871094 100.203125 C 221.109375 95.136719 215.507812 87.050781 213.753906 77.605469 C 213.375 75.570312 213.164062 73.464844 213.164062 71.316406 L 188.386719 71.316406 L 188.347656 170.601562 C 187.925781 181.71875 178.773438 190.648438 167.554688 190.648438 C 164.074219 190.648438 160.789062 189.777344 157.898438 188.261719 C 151.273438 184.765625 146.738281 177.816406 146.738281 169.828125 C 146.738281 158.347656 156.089844 149 167.570312 149 C 169.71875 149 171.769531 149.347656 173.71875 149.96875 L 173.71875 124.671875 C 171.710938 124.390625 169.664062 124.222656 167.570312 124.222656 C 142.429688 124.222656 121.964844 144.675781 121.964844 169.828125 C 121.964844 185.257812 129.671875 198.914062 141.433594 207.167969 C 148.84375 212.363281 157.84375 215.4375 167.570312 215.4375 C 192.710938 215.4375 213.175781 194.984375 213.175781 169.828125 L 213.175781 119.476562 C 222.890625 126.453125 234.796875 130.566406 247.652344 130.566406 L 247.652344 105.792969 C 240.734375 105.792969 234.289062 103.726562 228.886719 100.203125 Z M 228.871094 100.203125 " fill-opacity="1" fill-rule="nonzero"/><path fill="#000000" d="M 68.789062 243.398438 L 108.710938 243.398438 L 105.046875 254.824219 L 94.6875 254.824219 C 94.6875 254.824219 94.6875 297.050781 94.6875 297.050781 L 81.789062 297.050781 L 81.789062 254.824219 L 68.804688 254.851562 L 68.804688 243.414062 Z M 68.789062 243.398438 " fill-opacity="1" fill-rule="nonzero"/><path fill="#000000" d="M 174.113281 243.398438 L 214.960938 243.398438 L 211.296875 254.824219 L 200.039062 254.824219 C 200.039062 254.824219 200.039062 297.050781 200.039062 297.050781 L 187.109375 297.050781 L 187.109375 254.824219 L 174.125 254.851562 L 174.125 243.414062 Z M 174.113281 243.398438 " fill-opacity="1" fill-rule="nonzero"/><path fill="#000000" d="M 111.140625 260.453125 L 123.941406 260.453125 L 123.929688 297.035156 L 111.226562 297.035156 Z M 111.140625 260.453125 " fill-opacity="1" fill-rule="nonzero"/><path fill="#000000" d="M 129.023438 243.246094 L 141.8125 243.246094 L 141.8125 268.230469 L 154.488281 255.792969 L 169.746094 255.792969 C 169.746094 255.792969 153.714844 271.347656 153.714844 271.347656 L 171.667969 297.035156 L 157.589844 297.035156 L 145.617188 279.222656 L 141.828125 282.898438 L 141.828125 297.035156 L 129.039062 297.035156 L 129.039062 243.246094 Z M 129.023438 243.246094 " fill-opacity="1" fill-rule="nonzero"/><path fill="#000000" d="M 259.023438 243.246094 L 271.8125 243.246094 L 271.8125 268.230469 L 284.488281 255.792969 L 299.746094 255.792969 C 299.746094 255.792969 283.714844 271.347656 283.714844 271.347656 L 301.667969 297.035156 L 287.589844 297.035156 L 275.617188 279.222656 L 271.824219 282.898438 L 271.824219 297.035156 L 259.039062 297.035156 L 259.039062 243.246094 Z M 259.023438 243.246094 " fill-opacity="1" fill-rule="nonzero"/><path fill="#000000" d="M 123.984375 249.84375 C 123.984375 250.265625 123.945312 250.683594 123.859375 251.097656 C 123.777344 251.515625 123.65625 251.917969 123.496094 252.308594 C 123.332031 252.699219 123.132812 253.070312 122.898438 253.421875 C 122.664062 253.773438 122.398438 254.097656 122.097656 254.398438 C 121.796875 254.695312 121.472656 254.964844 121.121094 255.199219 C 120.769531 255.433594 120.398438 255.632812 120.007812 255.792969 C 119.617188 255.957031 119.214844 256.078125 118.800781 256.160156 C 118.382812 256.242188 117.964844 256.285156 117.542969 256.285156 C 117.117188 256.285156 116.699219 256.242188 116.285156 256.160156 C 115.871094 256.078125 115.46875 255.957031 115.078125 255.792969 C 114.683594 255.632812 114.3125 255.433594 113.960938 255.199219 C 113.609375 254.964844 113.285156 254.695312 112.984375 254.398438 C 112.6875 254.097656 112.417969 253.773438 112.183594 253.421875 C 111.949219 253.070312 111.75 252.699219 111.589844 252.308594 C 111.425781 251.917969 111.304688 251.515625 111.222656 251.097656 C 111.140625 250.683594 111.097656 250.265625 111.097656 249.84375 C 111.097656 249.417969 111.140625 249 111.222656 248.585938 C 111.304688 248.171875 111.425781 247.765625 111.589844 247.375 C 111.75 246.984375 111.949219 246.613281 112.183594 246.261719 C 112.417969 245.910156 112.6875 245.585938 112.984375 245.285156 C 113.285156 244.988281 113.609375 244.71875 113.960938 244.484375 C 114.3125 244.25 114.683594 244.050781 115.078125 243.890625 C 115.46875 243.726562 115.871094 243.605469 116.285156 243.523438 C 116.699219 243.441406 117.117188 243.398438 117.542969 243.398438 C 117.964844 243.398438 118.382812 243.441406 118.800781 243.523438 C 119.214844 243.605469 119.617188 243.726562 120.007812 243.890625 C 120.398438 244.050781 120.769531 244.25 121.121094 244.484375 C 121.472656 244.71875 121.796875 244.988281 122.097656 245.285156 C 122.398438 245.585938 122.664062 245.910156 122.898438 246.261719 C 123.132812 246.613281 123.332031 246.984375 123.496094 247.375 C 123.65625 247.765625 123.777344 248.171875 123.859375 248.585938 C 123.945312 249 123.984375 249.417969 123.984375 249.84375 Z M 123.984375 249.84375 " fill-opacity="1" fill-rule="nonzero"/><path fill="#000000" d="M 231.917969 253.238281 C 219.816406 253.238281 210.019531 263.039062 210.019531 275.136719 C 210.019531 287.238281 219.816406 297.035156 231.917969 297.035156 C 244.015625 297.035156 253.816406 287.238281 253.816406 275.136719 C 253.816406 263.039062 244.015625 253.238281 231.917969 253.238281 Z M 231.917969 285.792969 C 226.035156 285.792969 221.277344 281.019531 221.277344 275.152344 C 221.277344 269.285156 226.050781 264.511719 231.917969 264.511719 C 237.785156 264.511719 242.558594 269.285156 242.558594 275.152344 C 242.558594 281.019531 237.785156 285.792969 231.917969 285.792969 Z M 231.917969 285.792969 " fill-opacity="1" fill-rule="nonzero"/></svg>