<svg xmlns="http://www.w3.org/2000/svg" width="384" height="384" viewBox="0 0 384 384">
  <g>
    <path fill="#ffffff" d="M 364.054688 188.960938 L 364.019531 188.445312 C 357.105469 131.777344 308.6875 87.703125 250.207031 87.703125 C 234.207031 87.679688 218.382812 91.039062 203.773438 97.558594 C 219.699219 108.179688 232.992188 122.296875 242.644531 138.828125 C 245.152344 138.511719 247.679688 138.351562 250.207031 138.347656 C 285.535156 138.335938 314.183594 166.964844 314.195312 202.292969 C 314.199219 214.441406 310.746094 226.335938 304.238281 236.589844 C 304.171875 236.660156 304.101562 236.761719 304.03125 236.828125 C 292.304688 255.207031 272.011719 266.332031 250.207031 266.324219 C 243.636719 266.28125 237.113281 265.265625 230.839844 263.316406 C 213.609375 257.8125 199.5 245.285156 192 228.820312 C 188.539062 221.355469 186.59375 213.269531 186.289062 205.042969 L 186.289062 204.765625 C 186.21875 203.945312 186.21875 203.160156 186.21875 202.335938 C 186.21875 201.515625 186.21875 200.726562 186.289062 199.910156 L 186.289062 199.632812 C 185.082031 176.910156 169.414062 157.53125 147.449219 151.589844 C 133.617188 179.539062 131.789062 211.917969 142.382812 241.242188 C 143.84375 245.277344 145.523438 249.230469 147.414062 253.085938 C 157.332031 273.046875 172.816406 289.710938 192 301.058594 C 195.796875 303.3125 199.730469 305.335938 203.773438 307.117188 C 205.207031 307.765625 206.679688 308.382812 208.152344 308.964844 L 208.1875 308.964844 C 208.210938 308.988281 208.253906 309.003906 208.289062 308.996094 L 208.289062 309.03125 C 208.34375 309.046875 208.40625 309.058594 208.460938 309.066406 C 208.542969 309.078125 208.625 309.097656 208.699219 309.136719 C 221.917969 314.34375 236 317 250.207031 316.96875 C 303.167969 316.917969 349.214844 280.636719 361.660156 229.167969 C 361.683594 229.089844 361.695312 229.007812 361.691406 228.925781 C 361.710938 228.90625 361.722656 228.882812 361.726562 228.859375 C 363.808594 220.171875 364.855469 211.269531 364.839844 202.335938 C 364.839844 197.867188 364.578125 193.398438 364.054688 188.960938 Z"/>
    <path fill="#ffffff" d="M 141.359375 265.847656 C 138.847656 266.164062 136.324219 266.324219 133.792969 266.324219 C 98.457031 266.367188 69.773438 237.753906 69.730469 202.414062 C 69.6875 167.070312 98.304688 138.390625 133.644531 138.347656 C 133.695312 138.347656 133.746094 138.347656 133.792969 138.347656 C 140.375 138.390625 146.914062 139.40625 153.195312 141.359375 C 170.417969 146.875 184.507812 159.402344 192 175.851562 C 195.433594 183.332031 197.371094 191.410156 197.71875 199.632812 C 197.734375 199.722656 197.734375 199.816406 197.71875 199.910156 C 197.785156 200.726562 197.785156 201.515625 197.785156 202.335938 C 197.785156 203.160156 197.785156 203.945312 197.71875 204.765625 C 197.734375 204.855469 197.734375 204.949219 197.71875 205.042969 C 198.921875 227.777344 214.605469 247.160156 236.589844 253.085938 C 252.390625 221.105469 252.375 183.589844 236.554688 151.625 C 235.699219 149.878906 234.773438 148.136719 233.816406 146.425781 L 232.550781 144.234375 C 232.003906 143.273438 231.386719 142.316406 230.804688 141.359375 C 221.050781 125.878906 207.75 112.941406 192 103.613281 C 190.359375 102.65625 188.71875 101.734375 187.039062 100.847656 C 187.011719 100.84375 186.988281 100.828125 186.96875 100.808594 C 186.9375 100.808594 186.902344 100.777344 186.835938 100.742188 C 186.757812 100.710938 186.6875 100.664062 186.628906 100.605469 C 184.507812 99.542969 182.386719 98.519531 180.230469 97.558594 C 165.625 91.027344 149.796875 87.667969 133.792969 87.703125 C 70.59375 87.703125 19.164062 139.136719 19.164062 202.335938 C 19.140625 216.257812 21.679688 230.058594 26.65625 243.058594 C 26.691406 243.125 26.714844 243.191406 26.722656 243.261719 L 26.722656 243.296875 C 26.757812 243.367188 26.757812 243.433594 26.792969 243.46875 C 34.921875 264.4375 49.019531 282.570312 67.339844 295.621094 C 67.199219 295.554688 67.058594 295.46875 66.933594 295.378906 C 67.855469 296.0625 68.78125 296.746094 69.738281 297.398438 C 102.433594 319.453125 144.183594 323.121094 180.230469 307.117188 C 164.3125 296.480469 151.019531 282.371094 141.359375 265.847656 Z"/>
  </g>
</svg>

