<svg xmlns="http://www.w3.org/2000/svg" xmlns:xlink="http://www.w3.org/1999/xlink" width="512" zoomAndPan="magnify" viewBox="0 0 384 383.999986" height="512" preserveAspectRatio="xMidYMid meet" version="1.0"><defs><clipPath id="832386e554"><path d="M 13 41 L 370.695312 41 L 370.695312 304.648438 L 13 304.648438 Z M 13 41 " clip-rule="nonzero"/></clipPath></defs><g clip-path="url(#832386e554)"><path fill="#ff3131" d="M 13.011719 158.460938 L 95.484375 158.460938 L 95.484375 304.296875 L 13.011719 304.296875 Z M 348.785156 151.589844 L 196.363281 151.589844 C 195.789062 149.082031 195.503906 146.433594 196.003906 143.714844 C 197.292969 136.484375 202.015625 122.164062 209.605469 108.847656 C 215.191406 99.039062 217.480469 52.574219 207.171875 45.488281 C 196.863281 38.398438 182.757812 40.976562 175.671875 51.285156 L 163 98.109375 L 137.582031 134.980469 C 133 141.636719 109.160156 169.203125 109.160156 169.203125 L 109.160156 292.773438 L 148.75 304.296875 L 236.382812 304.296875 C 248.910156 304.296875 259.007812 294.132812 259.007812 281.675781 C 259.007812 278.738281 258.433594 276.019531 257.429688 273.441406 C 267.3125 271.007812 274.757812 262.203125 274.757812 251.535156 C 274.757812 244.949219 271.894531 239.078125 267.382812 234.925781 C 277.761719 232.847656 285.640625 223.753906 285.640625 212.730469 C 285.640625 206.070312 282.703125 200.128906 278.121094 196.050781 L 348.785156 196.050781 C 361.027344 196.050781 370.976562 186.097656 370.976562 173.855469 C 370.976562 161.539062 361.027344 151.589844 348.785156 151.589844 Z M 348.785156 151.589844 " fill-opacity="1" fill-rule="nonzero"/></g></svg>